# xmcd CD database file
#
# Track frame offsets:
#	187
#	14490
#	32645
#	51915
#	53617
#	58887
#	76325
#	92152
#	100837
#	108187
#	130757
#	132277
#	133695
#	152277
#	174620
#	195635
#
# Disc length: 2836 seconds
#
# Revision: 0
# Processed by: cddbd v1.5PL3 Copyright (c) Steve Scherf et al.
# Submitted via: CDex 1.50
#
DISCID=cf0b1210
DTITLE=EPO - JOEPO
DYEAR=1900
DGENRE=Japanese Pop
TTITLE0=JOEPO 〜 DOWN TOWN （う・わ・さ・に・な・り・た・い）
TTITLE1=VITAMIN E P O (REMIX VERSION)
TTITLE2=身代わりのバディー (JOEPO 1981 KHz)
TTITLE3=JOEPO 1984 (NEW VERSION)
TTITLE4=MAKING う・ふ・ふ・ふ (NEW VERSION)
TTITLE5=う・ふ・ふ・ふ (VITAMIN E P O)
TTITLE6=くちびるヌード・咲かせます (NEW EDIT)
TTITLE7=再見・親心広播電台 (NEW VERSION)
TTITLE8=RADIO DEAR HEART (WDEAR 499) (REMIX VERSION)
TTITLE9=土曜の夜はパラダイス (CAFE BER VERSION)
TTITLE10=WDEAR 499 (NEW VERSION)
TTITLE11=POP MUSIC (DOWN TOWN)
TTITLE12=GOODIES (GOODIES)
TTITLE13=雨のめぐり逢い (う・わ・さ・に・な・り・た・い)
TTITLE14=雨のケンネル通り (NEW VERSION)
TTITLE15=EPO INSTRUMENTAL MEDLEY (NEW VERSION)
EXTD=
EXTT0=
EXTT1=
EXTT2=
EXTT3=
EXTT4=
EXTT5=
EXTT6=
EXTT7=
EXTT8=
EXTT9=
EXTT10=
EXTT11=
EXTT12=
EXTT13=
EXTT14=
EXTT15=
PLAYORDER=
